<?xml version="1.0" standalone="no"?>
<!DOCTYPE svg PUBLIC "-//W3C//DTD SVG 20010904//EN"
 "http://www.w3.org/TR/2001/REC-SVG-20010904/DTD/svg10.dtd">
<svg version="1.0" xmlns="http://www.w3.org/2000/svg"
 width="500.000000pt" height="500.000000pt" viewBox="0 0 500.000000 500.000000"
 preserveAspectRatio="xMidYMid meet">

<g transform="translate(0.000000,500.000000) scale(0.100000,-0.100000)"
fill="#000000" stroke="none">
<path d="M2151 4478 c-87 -11 -257 -66 -321 -103 -104 -61 -124 -75 -115 -75
5 0 -13 -24 -41 -52 -28 -29 -62 -69 -76 -89 -34 -46 -88 -146 -88 -162 0 -7
-7 -22 -15 -32 -37 -48 -105 -161 -105 -176 0 -8 -11 -29 -24 -47 -17 -24 -25
-51 -29 -104 -4 -40 -11 -87 -17 -105 -8 -23 -8 -43 0 -75 19 -67 21 -78 30
-155 5 -40 17 -92 28 -115 38 -87 37 -92 -19 -134 -42 -32 -89 -88 -89 -106 0
-2 28 23 63 57 34 33 101 87 149 119 81 53 109 76 93 76 -4 0 -22 -12 -41 -26
-19 -15 -36 -25 -38 -23 -3 2 26 49 62 105 53 79 82 112 141 157 41 31 71 57
67 57 -6 0 -15 -4 -67 -31 -12 -6 -23 -9 -25 -6 -5 5 62 128 96 177 35 49 188
200 204 200 7 0 25 -9 39 -20 34 -27 37 -26 37 15 0 30 3 35 23 35 12 0 40 3
61 7 32 5 38 4 31 -8 -6 -11 -5 -12 6 -1 18 17 84 15 99 -3 11 -13 7 -15 -28
-15 -33 0 -69 -12 -111 -37 -2 -2 -2 -5 1 -8 2 -3 27 2 54 10 58 18 64 18 64
5 0 -6 -3 -9 -7 -8 -5 0 -17 -2 -28 -7 -91 -37 -128 -54 -115 -56 20 -2 22 -2
45 6 18 6 17 4 -4 -14 -36 -32 -9 -25 34 9 21 17 41 30 46 30 10 0 -51 -102
-67 -112 -6 -4 -9 -23 -8 -43 2 -21 -1 -33 -6 -30 -5 3 -20 -4 -32 -15 -42
-40 -182 -127 -275 -173 -51 -25 -93 -44 -93 -43 0 11 33 66 45 76 28 23 15
31 -15 9 -16 -13 -47 -57 -69 -98 -47 -89 -192 -274 -258 -328 -28 -23 -54
-37 -67 -35 -15 2 -17 0 -8 -6 11 -7 10 -10 -3 -16 -28 -10 -33 -7 -27 16 l5
22 -23 -22 c-13 -12 -31 -22 -41 -22 -20 0 -34 -29 -20 -43 5 -5 21 -2 39 7
17 9 39 16 49 16 10 0 35 11 55 25 20 14 42 25 47 25 7 0 11 -27 11 -67 1 -42
6 -75 14 -86 13 -17 14 -15 10 20 -14 144 -13 161 12 184 l24 22 19 -44 c11
-26 15 -48 10 -54 -5 -5 -9 -23 -8 -40 1 -31 3 -28 13 16 4 17 17 29 40 39 27
10 33 17 25 26 -14 18 -3 34 24 34 20 1 21 1 4 11 -14 8 -23 7 -38 -7 -18 -16
-19 -16 -20 12 -1 18 -3 22 -6 11 -5 -18 -5 -18 -19 0 -13 16 -14 16 -8 -11 5
-21 4 -27 -5 -22 -22 14 -11 54 27 95 30 32 40 39 50 29 9 -9 12 -5 12 18 0
19 9 39 24 53 14 13 30 35 36 49 15 37 84 86 185 132 75 34 222 122 235 140
17 24 167 112 198 117 20 3 66 19 101 34 35 16 79 29 97 29 40 0 115 -46 194
-120 30 -28 82 -66 116 -85 34 -19 66 -41 73 -48 6 -8 30 -22 54 -31 36 -13
87 -65 87 -88 0 -6 -57 12 -75 24 -5 3 -29 11 -52 17 -29 8 -43 17 -43 29 0
14 -4 13 -18 -6 -15 -20 -22 -22 -45 -13 -15 6 -27 16 -27 23 0 19 -67 91 -74
79 -4 -5 2 -12 12 -15 10 -3 26 -20 36 -38 19 -30 19 -31 0 -45 -10 -8 -29
-16 -41 -19 -27 -7 -55 -64 -61 -126 -5 -57 -26 -66 -84 -36 -36 19 -39 24
-34 52 5 31 5 31 -11 9 -19 -28 -33 -29 -33 -3 0 24 -9 25 -36 5 -26 -19 -44
-19 -60 3 -12 15 -13 15 -14 1 0 -9 -7 -22 -15 -29 -12 -10 -15 -9 -15 4 0 14
-4 14 -28 -4 -16 -12 -36 -34 -46 -51 -18 -31 -53 -39 -62 -15 -3 8 -4 27 -2
43 l4 28 11 -25 c9 -21 12 -22 18 -8 9 24 -22 73 -66 103 -48 34 -142 50 -209
36 -58 -12 -144 -53 -178 -84 -20 -18 -24 -19 -32 -7 -10 16 -13 8 -11 -26 1
-11 -3 -32 -8 -47 -9 -23 -14 -26 -43 -21 l-33 5 24 -21 c23 -19 23 -21 6 -34
-16 -12 -16 -13 -1 -19 16 -6 24 -38 9 -36 -22 4 -43 -2 -43 -12 0 -6 6 -9 14
-6 18 7 34 -12 76 -88 34 -61 87 -117 140 -149 17 -9 30 -12 30 -7 0 6 -4 11
-10 11 -5 0 -10 4 -10 9 0 5 19 6 43 4 23 -3 69 2 102 11 32 8 61 14 63 12 8
-9 -46 -48 -92 -65 -29 -12 -42 -20 -30 -20 35 -1 117 47 167 100 44 47 57 69
39 69 -4 0 -13 -5 -20 -12 -9 -9 -12 -9 -12 3 0 9 9 24 20 34 11 10 20 13 20
7 0 -7 4 -12 10 -12 15 0 40 98 33 132 -6 33 8 49 38 43 14 -3 17 3 16 23 -2
21 2 26 16 24 11 -2 17 4 17 17 0 11 5 23 10 26 6 3 10 1 10 -5 0 -6 4 -9 9
-5 5 3 11 -5 13 -17 2 -16 9 -22 21 -20 10 2 21 -7 29 -23 10 -22 7 -30 -21
-70 -18 -25 -28 -45 -22 -45 5 0 14 8 20 17 9 16 11 16 32 -2 l23 -20 -17 24
c-12 18 -13 29 -6 44 6 10 8 33 5 51 -6 33 11 72 21 48 4 -9 8 -10 18 -2 10 8
22 3 49 -21 34 -30 36 -30 36 -9 0 18 3 20 13 11 8 -6 17 -8 20 -4 4 3 7 -8 7
-26 0 -43 23 -95 51 -115 18 -12 21 -18 11 -28 -19 -19 -14 -28 12 -18 26 10
74 -16 48 -26 -6 -3 -9 -10 -6 -15 3 -6 0 -17 -7 -25 -15 -18 -4 -31 14 -16
10 9 22 4 49 -18 65 -53 156 -90 218 -88 l55 2 -50 3 c-80 6 -73 20 12 25 43
2 87 10 98 16 17 11 14 11 -20 6 l-39 -7 18 28 c10 15 33 41 52 58 34 29 41
53 8 26 -14 -11 -15 -10 -12 10 2 19 10 24 36 26 19 2 32 -2 32 -9 0 -7 7 -21
15 -32 13 -16 14 -16 9 -1 -5 13 -1 17 15 17 12 0 21 6 21 15 0 8 9 19 20 25
11 6 20 17 20 25 0 20 15 19 35 -2 20 -19 15 -57 -15 -118 -18 -38 -18 -39 -1
-17 11 12 22 22 25 22 10 0 7 -68 -4 -75 -5 -3 -10 -25 -10 -49 0 -38 -6 -49
-55 -101 -30 -32 -55 -61 -55 -65 0 -4 -14 -14 -32 -21 -24 -10 -33 -10 -36
-1 -2 7 -12 12 -23 12 -26 0 -24 17 4 26 20 7 19 9 -13 14 -20 3 -34 11 -32
18 1 7 -2 12 -6 12 -18 0 -62 -58 -88 -114 -25 -56 -26 -62 -14 -108 16 -63
-1 -88 -19 -28 -6 22 -16 40 -22 40 -6 0 -6 -7 1 -19 14 -27 12 -62 -5 -85
-15 -19 -15 -19 -15 3 0 20 -2 22 -15 11 -11 -9 -13 -16 -5 -24 5 -5 10 -23
10 -38 0 -21 -5 -28 -19 -28 -10 0 -29 -8 -42 -19 -23 -19 -59 -17 -59 3 -1 6
-7 0 -14 -13 l-13 -23 -20 25 -20 26 -31 -29 c-26 -23 -33 -26 -43 -14 -15 18
-48 18 -69 -1 -15 -14 -18 -14 -30 0 -17 21 -56 19 -80 -5 -11 -11 -20 -16
-20 -12 0 5 -12 14 -26 21 -22 10 -30 9 -46 -6 -17 -15 -21 -15 -28 -3 -6 8
-10 18 -10 22 0 14 -42 19 -56 7 -21 -17 -33 3 -35 56 l-1 40 -10 -30 c-8 -27
-15 -31 -49 -32 -21 -1 -41 2 -44 8 -4 5 -13 9 -21 9 -9 0 -23 9 -32 21 -10
11 -26 21 -37 23 -17 3 -20 9 -16 47 1 24 8 50 13 57 7 8 7 12 0 12 -16 0 -32
-34 -32 -64 0 -24 -2 -25 -20 -14 -11 7 -20 21 -20 32 0 11 -3 16 -6 13 -8 -7
-44 36 -44 52 0 6 5 19 11 29 8 13 7 27 -4 55 -9 20 -21 37 -26 37 -6 0 -1
-16 10 -35 12 -20 16 -35 10 -35 -6 0 -11 -7 -11 -15 0 -8 -4 -15 -10 -15 -15
0 -32 39 -25 60 4 11 2 20 -4 20 -6 0 -26 14 -44 30 -19 17 -37 30 -40 30 -11
0 6 -39 19 -44 21 -8 17 -44 -7 -51 -18 -6 -40 6 -69 35 -3 3 -27 11 -55 18
-59 16 -91 43 -101 86 -10 48 -24 71 -34 55 -7 -10 -11 -10 -24 0 -26 21 -20
-6 9 -43 84 -107 91 -114 122 -119 18 -3 48 -18 67 -32 23 -17 55 -29 90 -34
73 -10 86 -22 80 -74 -16 -138 -16 -144 0 -160 12 -11 13 -17 3 -20 -6 -3 -2
-6 11 -6 13 -1 21 -5 18 -10 -3 -5 1 -11 9 -15 8 -3 15 -13 15 -21 0 -9 4 -14
9 -10 5 3 18 -8 27 -24 10 -16 33 -38 51 -48 20 -10 33 -25 33 -37 0 -31 48
-86 76 -86 17 0 24 6 24 18 0 20 27 22 182 8 48 -4 85 -3 97 4 17 9 152 22
221 21 14 0 35 -1 48 -1 18 0 22 -6 22 -33 0 -32 -1 -33 -47 -35 -29 -1 -52
-8 -59 -17 -14 -19 -38 -20 -31 -1 9 22 -19 39 -48 32 -15 -4 -52 -9 -83 -12
-31 -2 -76 -7 -99 -10 -29 -3 -43 -1 -43 6 0 7 -15 10 -42 6 -121 -13 -148
-19 -148 -32 0 -7 -9 -18 -20 -24 -17 -9 -20 -21 -20 -70 0 -48 -3 -60 -16
-60 -13 0 -15 -6 -9 -27 4 -16 8 -112 10 -215 2 -112 8 -194 14 -207 10 -17
21 -21 61 -21 43 0 50 3 50 20 0 24 17 27 22 3 2 -12 14 -18 43 -19 22 -1 52
-5 67 -8 21 -5 30 -2 38 14 28 53 75 45 81 -15 4 -38 16 -55 35 -48 8 3 14 -1
14 -11 0 -12 -6 -15 -23 -11 l-23 6 4 -105 c4 -90 2 -106 -11 -106 -21 0 -31
66 -22 156 6 68 5 74 -12 74 -10 0 -28 7 -40 15 -16 11 -47 15 -117 14 -53 -1
-99 -6 -102 -10 -3 -5 -18 -9 -33 -9 -15 0 -28 -6 -29 -12 -4 -49 -3 -139 3
-147 3 -6 12 -8 20 -4 11 4 15 -2 15 -21 0 -19 -5 -26 -19 -26 -17 0 -18 -6
-14 -43 6 -57 64 -175 106 -215 30 -29 38 -32 56 -23 18 10 21 9 21 -9 0 -28
36 -40 150 -52 136 -13 186 5 274 99 56 61 96 131 96 172 0 28 -3 33 -20 28
-29 -7 -25 12 5 23 25 9 25 11 25 130 0 107 -8 145 -23 108 -4 -10 -8 -9 -16
2 -14 20 -9 33 18 45 20 9 22 15 19 62 -7 85 -72 196 -152 261 -8 6 -38 12
-66 12 -47 0 -51 -2 -45 -20 5 -17 2 -20 -23 -20 -16 0 -35 7 -42 15 -16 19
-37 19 -74 0 -15 -8 -37 -15 -47 -15 -10 0 -21 -4 -24 -10 -12 -19 -25 -10
-25 19 0 38 12 40 230 47 149 4 177 7 188 22 10 12 12 49 10 138 -3 112 -1
122 16 130 11 5 32 31 46 59 21 39 35 52 61 60 43 12 116 71 125 99 3 12 15
30 25 42 20 21 33 124 15 121 -4 -1 -15 20 -23 46 -13 45 -13 51 5 80 26 45
57 58 118 51 69 -8 87 -1 120 49 15 23 43 56 61 72 37 34 52 92 57 215 3 90
15 160 28 160 5 0 5 7 0 18 -6 10 -3 60 5 127 8 61 18 136 21 167 l7 57 45
-41 c25 -22 60 -47 79 -55 32 -14 36 -13 49 4 26 35 -5 110 -104 255 -65 94
-130 226 -139 283 -10 55 -48 162 -76 210 -31 54 -160 180 -231 225 -31 21
-81 47 -110 58 -104 42 -113 45 -123 46 -5 1 -19 6 -30 13 -11 6 -38 15 -60
19 -22 4 -64 15 -94 25 -45 16 -83 19 -225 18 -94 -1 -204 -6 -245 -11z m439
-23 c149 -38 377 -122 429 -158 135 -92 229 -204 276 -331 33 -88 30 -112 -8
-71 -163 176 -255 223 -412 213 -61 -4 -83 -11 -159 -52 -48 -27 -99 -58 -114
-71 -15 -12 -44 -30 -64 -39 -36 -17 -65 -55 -33 -42 36 13 9 -25 -72 -102
-112 -107 -211 -187 -242 -197 -23 -7 -22 -4 11 35 20 23 55 57 77 77 56 47
52 63 -4 17 -61 -49 -57 -30 6 32 28 27 61 59 73 72 13 12 27 22 32 22 5 0 23
11 39 25 22 18 26 24 13 25 -9 0 -19 -4 -22 -8 -2 -4 -42 -7 -88 -6 l-83 1 60
-12 c45 -9 55 -14 42 -20 -10 -4 -35 -3 -56 4 -54 16 -221 14 -273 -3 -24 -8
-76 -24 -116 -36 -73 -21 -177 -75 -202 -105 -17 -21 -3 -19 30 5 34 24 130
70 148 70 6 0 -19 -38 -57 -84 -38 -47 -83 -109 -100 -139 -23 -40 -43 -61
-74 -77 -43 -22 -127 -97 -127 -114 0 -5 24 14 53 41 49 47 104 85 95 66 -2
-4 -14 -29 -26 -54 -43 -92 -152 -258 -195 -297 l-25 -23 -25 55 c-29 64 -26
95 18 151 14 19 25 38 25 43 0 6 6 13 13 15 9 4 9 6 0 6 -7 1 -27 -17 -44 -39
-33 -41 -49 -50 -49 -27 0 7 13 23 28 34 16 12 45 45 64 75 41 60 132 149 178
173 35 18 41 4 8 -19 -12 -9 -17 -16 -11 -16 20 0 67 46 59 58 -9 15 -43 16
-51 2 -4 -6 -14 -8 -23 -6 -21 7 -89 -56 -134 -122 -51 -75 -99 -132 -113
-132 -12 0 -36 101 -35 149 0 14 10 36 23 49 24 26 36 33 183 105 152 74 197
117 123 117 -31 0 -40 -16 -11 -22 11 -3 -14 -20 -65 -46 -46 -23 -86 -43 -90
-43 -5 -1 -25 -10 -45 -20 -27 -14 -38 -15 -41 -6 -4 7 -6 6 -6 -4 -1 -9 -12
-21 -25 -27 -24 -11 -24 -10 -21 34 3 48 28 79 72 90 28 8 30 24 3 24 -20 0
-19 2 5 48 14 26 43 74 65 107 21 33 46 80 56 105 46 118 139 219 285 312 157
99 337 141 574 133 61 -2 139 -11 175 -20z m413 -370 c69 -18 146 -66 207
-130 25 -25 62 -63 82 -84 20 -21 34 -41 31 -45 -4 -3 0 -6 8 -6 8 0 25 -26
38 -58 14 -31 30 -64 36 -72 24 -30 67 -110 59 -110 -5 0 1 -7 13 -15 25 -18
86 -125 71 -125 -6 0 -19 10 -29 22 -22 25 -25 12 -4 -16 17 -22 20 -66 6 -66
-5 0 -19 13 -30 29 -12 16 -41 41 -65 55 -24 14 -58 44 -74 67 -83 112 -166
173 -204 150 -36 -22 -156 0 -218 41 -14 8 -43 21 -65 28 -22 7 -45 17 -51 22
-27 20 -179 69 -213 67 -20 -1 -46 1 -58 5 -19 6 -21 10 -11 30 5 13 20 29 32
36 13 6 30 24 39 40 19 32 93 84 143 100 19 7 34 15 34 19 0 5 11 6 25 3 18
-3 25 0 25 12 0 21 93 22 173 1z m-433 -305 c-33 -29 -51 -39 -67 -35 -16 4
-23 1 -23 -10 0 -16 -47 -43 -95 -56 -16 -4 -41 -11 -55 -14 -14 -4 4 11 40
34 36 23 69 40 74 38 10 -3 66 44 66 55 0 5 -13 2 -30 -7 -39 -20 -47 -19 -26
4 19 21 44 27 116 29 l45 1 -45 -39z m163 -9 c87 -30 155 -61 199 -92 14 -11
36 -19 47 -19 17 0 21 -6 21 -31 0 -17 -4 -28 -10 -24 -5 3 -7 0 -4 -9 5 -14
92 -86 103 -86 3 0 13 5 21 10 13 8 12 10 -3 10 -27 0 -49 24 -35 38 8 8 15 8
24 1 10 -8 12 -6 11 10 0 11 -4 19 -7 18 -3 -1 -15 8 -27 21 -13 12 -20 22
-15 23 4 0 18 3 32 5 13 2 31 1 40 -2 8 -4 28 -8 44 -9 15 -2 47 -16 70 -32
32 -23 40 -35 38 -54 -2 -17 0 -20 6 -10 8 11 12 9 18 -10 4 -13 7 -27 6 -32
-1 -4 2 -6 6 -5 4 2 21 -8 37 -22 21 -18 31 -36 33 -60 l3 -35 -48 55 c-26 30
-48 61 -48 69 0 7 -10 16 -23 17 -37 6 -26 -25 31 -86 71 -77 87 -98 87 -116
0 -19 -26 -2 -167 113 -112 92 -151 110 -71 33 28 -27 55 -50 58 -50 3 0 30
-20 59 -45 28 -24 66 -52 82 -62 29 -17 31 -21 27 -70 -6 -66 -14 -75 -40 -40
-11 15 -29 32 -41 39 -13 7 -5 -7 21 -37 23 -26 42 -53 43 -59 2 -22 -3 -101
-6 -105 -2 -1 -14 7 -27 19 -13 12 -34 28 -48 37 -29 18 -77 74 -135 158 -107
154 -310 385 -339 385 -5 0 16 -26 47 -57 66 -67 92 -102 83 -111 -4 -3 -21
12 -39 33 -73 88 -199 197 -212 183 -3 -3 12 -17 33 -32 38 -26 132 -119 132
-130 0 -11 -71 37 -129 88 -32 30 -87 71 -121 92 -46 28 -58 40 -46 46 15 8
45 -2 134 -44 23 -12 44 -19 47 -16 8 8 -48 44 -98 63 -45 17 -47 19 -31 36
22 25 29 24 127 -10z m337 -185 c0 -3 -4 -8 -10 -11 -5 -3 -10 -1 -10 4 0 6 5
11 10 11 6 0 10 -2 10 -4z m510 -215 l0 -26 -20 25 c-11 14 -20 34 -20 44 0
18 1 18 20 1 11 -10 20 -30 20 -44z m-606 -40 c64 -30 116 -79 116 -111 0 -10
4 -20 10 -22 5 -1 10 -43 11 -93 2 -89 -13 -165 -38 -195 -7 -8 -19 -23 -26
-34 -13 -18 -65 -27 -149 -27 -74 1 -129 41 -147 108 -8 30 -17 42 -35 47 -14
3 -28 15 -31 26 -4 12 -17 32 -31 45 -13 13 -24 30 -24 37 1 8 5 7 14 -4 18
-25 29 -22 16 3 -9 16 -8 28 4 53 8 17 17 52 18 78 4 49 30 98 52 98 7 0 19 6
25 14 20 24 142 11 215 -23z m-833 -11 c11 -6 16 -16 13 -22 -5 -8 -1 -9 10
-5 15 6 17 3 12 -18 -4 -14 -1 -44 6 -66 9 -32 9 -45 0 -60 -16 -25 -15 -29 3
-29 9 0 19 -8 22 -17 4 -10 11 -21 16 -24 4 -3 0 -14 -10 -24 -10 -10 -16 -29
-15 -42 3 -16 -4 -26 -22 -34 -17 -8 -28 -23 -32 -46 -5 -29 -14 -37 -62 -60
-44 -21 -70 -26 -120 -25 -36 0 -69 5 -75 11 -6 6 -17 11 -25 11 -32 0 -102
83 -102 121 0 6 -6 17 -14 25 -16 15 -20 104 -5 104 4 0 6 6 3 13 -11 29 54
137 82 137 3 0 19 9 34 20 61 44 223 61 281 30z m1019 -190 c4 -63 2 -70 -15
-70 -12 0 -15 15 -15 72 0 63 2 70 14 58 8 -8 15 -35 16 -60z m44 -44 c8 3 16
-2 19 -10 4 -9 13 -13 22 -10 10 4 15 0 15 -12 0 -23 -20 -57 -20 -35 0 11 -3
11 -15 1 -8 -7 -15 -9 -15 -4 0 5 -4 2 -10 -6 -12 -19 -18 -12 -20 25 -3 41 1
72 6 58 3 -7 11 -10 18 -7z m-38 -57 c10 -17 -13 -36 -27 -22 -12 12 -4 33 11
33 5 0 12 -5 16 -11z m-1261 -661 c-4 -24 -10 -47 -12 -52 -11 -17 -23 20 -17
49 8 37 12 45 25 45 7 0 8 -15 4 -42z m1097 -5 c2 -10 1 -29 -3 -43 -6 -20 -7
-21 -8 -5 -1 11 -4 30 -7 43 -4 12 -2 22 4 22 5 0 12 -8 14 -17z m-1043 -58
c-2 -77 -22 -85 -27 -10 -4 52 2 75 18 75 7 0 10 -25 9 -65z m1001 15 c0 -14
-1 -36 -4 -50 -2 -14 -5 -31 -5 -37 -1 -7 -5 -13 -10 -13 -16 0 -23 82 -11
114 12 33 30 25 30 -14z m-928 8 c3 -7 4 -26 3 -43 -1 -16 -3 -49 -4 -73 -1
-30 -5 -42 -13 -40 -19 7 -38 69 -31 103 10 55 34 83 45 53z m72 -37 c3 -4 2
-39 -3 -75 -4 -37 -4 -88 -1 -113 l7 -46 -18 24 c-25 33 -35 136 -18 183 13
36 23 44 33 27z m106 -31 c0 -11 4 -21 9 -24 9 -6 6 -130 -4 -146 -9 -15 -52
-12 -69 5 -22 22 -30 97 -16 140 17 51 80 71 80 25z m688 -33 c4 -45 -19 -77
-55 -77 -19 0 -23 5 -23 30 0 48 27 92 53 88 18 -2 23 -11 25 -41z m-178 3
c17 -32 8 -121 -12 -134 -13 -8 -23 -8 -35 0 -24 15 -23 92 0 128 21 31 33 33
47 6z m-299 -64 c4 -89 -3 -108 -38 -104 -27 3 -28 5 -30 68 -1 44 4 73 14 89
l16 25 18 -23 c11 -13 20 -37 20 -55z m191 57 c13 -12 18 -30 18 -69 0 -49 -2
-53 -30 -62 -45 -16 -60 4 -49 65 17 90 25 99 61 66z m182 1 c3 -9 6 -26 6
-38 0 -34 -29 -126 -40 -126 -14 0 -13 110 1 149 12 34 24 40 33 15z m-479
-17 c4 -13 5 -46 3 -73 -3 -42 -6 -49 -25 -52 -17 -3 -24 4 -31 30 -13 46 -9
71 13 95 26 28 33 28 40 0z m201 1 c8 -26 7 -82 -1 -109 -4 -11 -16 -19 -29
-19 -20 0 -24 6 -29 50 -3 28 -2 62 3 75 12 32 46 33 56 3z m37 -225 c-2 -7
-4 -19 -5 -25 -4 -18 71 -13 85 5 18 23 63 29 77 12 15 -18 9 -210 -6 -225 -5
-4 -70 -11 -144 -14 -74 -3 -165 -9 -202 -12 l-68 -6 0 -55 c0 -49 2 -54 16
-42 16 13 122 59 137 59 4 0 17 -9 29 -20 32 -29 72 -26 87 6 38 85 201 -82
218 -224 5 -43 3 -51 -17 -65 -18 -12 -21 -21 -15 -45 3 -18 14 -32 26 -35 17
-4 19 -14 18 -74 -1 -90 -10 -117 -37 -121 -15 -2 -22 -10 -22 -25 0 -12 -3
-33 -7 -46 -5 -21 -3 -23 16 -18 18 4 22 2 19 -16 -2 -12 -9 -21 -16 -19 -8 1
-11 -2 -7 -7 9 -16 -38 -82 -93 -130 -69 -62 -162 -88 -162 -46 0 10 -10 15
-30 15 -20 0 -30 -5 -30 -15 0 -16 -28 -19 -68 -9 -15 4 -21 12 -17 23 6 21
-80 64 -111 55 -27 -7 -86 68 -104 132 -11 39 -11 50 2 77 8 18 15 50 14 72
-1 33 -4 39 -19 37 -16 -3 -18 3 -15 50 3 61 -7 56 147 65 61 3 97 1 104 -6 6
-6 19 -11 28 -11 14 0 17 -14 18 -97 1 -69 6 -103 17 -120 28 -44 39 -22 44
88 4 93 7 104 23 101 15 -3 18 3 15 35 -2 29 -7 37 -20 35 -11 -2 -18 7 -23
30 -14 64 -44 75 -92 34 -25 -21 -36 -24 -74 -19 -24 4 -49 14 -56 23 -16 23
-69 15 -76 -11 -3 -12 -14 -19 -30 -19 -18 0 -28 8 -38 32 -16 39 -13 169 5
181 8 6 8 10 -1 14 -17 6 -16 21 2 39 8 9 15 23 15 32 0 13 -2 14 -9 3 -13
-20 -21 0 -27 69 -5 51 -3 60 11 60 14 0 15 8 10 54 -8 63 0 96 22 96 9 0 25
8 35 17 12 10 42 18 79 21 59 4 61 4 54 -17 -5 -18 -2 -21 24 -21 24 0 31 4
31 20 0 22 18 28 100 33 88 6 115 3 113 -10z"/>
<path d="M2246 3952 c-3 -5 17 -9 45 -9 28 -1 47 2 44 8 -7 11 -82 12 -89 1z"/>
<path d="M2130 3940 c0 -11 31 -11 75 0 26 7 22 8 -22 9 -30 0 -53 -3 -53 -9z"/>
<path d="M2360 3940 c20 -13 43 -13 35 0 -3 6 -16 10 -28 10 -18 0 -19 -2 -7
-10z"/>
<path d="M2003 3933 c-7 -2 -13 -9 -13 -15 0 -6 7 -7 18 -3 9 4 29 7 44 6 15
-1 29 3 33 9 6 10 -59 13 -82 3z"/>
<path d="M2440 3930 c20 -13 33 -13 25 0 -3 6 -14 10 -23 10 -15 0 -15 -2 -2
-10z"/>
<path d="M1933 3913 c-13 -2 -23 -9 -23 -14 0 -6 9 -7 23 -3 12 4 28 7 35 7 6
0 12 4 12 9 0 8 -8 8 -47 1z"/>
<path d="M2158 3903 c7 -3 16 -2 19 1 4 3 -2 6 -13 5 -11 0 -14 -3 -6 -6z"/>
<path d="M1860 3893 c-14 -3 -29 -9 -35 -15 -13 -14 55 -2 69 12 10 10 9 11
-34 3z"/>
<path d="M1775 3873 c-30 -7 -43 -23 -18 -23 11 0 26 7 33 15 7 8 11 14 9 14
-2 -1 -13 -3 -24 -6z"/>
<path d="M1655 3835 l-30 -15 35 6 c19 4 44 10 55 15 18 7 18 8 -5 8 -14 0
-38 -6 -55 -14z"/>
<path d="M1551 3799 c-13 -5 -22 -12 -19 -15 3 -3 21 2 39 10 37 16 19 21 -20
5z"/>
<path d="M1465 3770 c-8 -13 25 -13 45 0 12 8 9 10 -12 10 -15 0 -30 -4 -33
-10z"/>
<path d="M2848 4083 c7 -3 16 -2 19 1 4 3 -2 6 -13 5 -11 0 -14 -3 -6 -6z"/>
<path d="M1962 3653 c-34 -20 -60 -38 -58 -40 4 -4 136 67 136 73 0 10 -20 2
-78 -33z"/>
<path d="M1965 3579 c-44 -33 -93 -67 -108 -75 -23 -12 -26 -18 -16 -30 13
-15 55 -19 63 -5 3 4 -6 6 -19 3 -44 -8 -27 12 70 82 52 38 95 73 95 78 0 11
4 14 -85 -53z"/>
<path d="M2347 3533 c-9 -2 -26 -23 -37 -46 -19 -39 -20 -43 -3 -54 24 -19 40
-16 46 8 4 16 3 18 -8 9 -23 -19 -36 -3 -23 28 17 38 17 38 33 16 14 -18 14
-17 15 14 0 17 -1 31 -2 31 -2 -1 -11 -3 -21 -6z"/>
<path d="M2391 3451 c-43 -81 -39 -87 9 -13 42 64 45 72 31 72 -4 0 -22 -27
-40 -59z"/>
<path d="M2438 3453 c-18 -5 -31 -30 -23 -44 3 -4 16 -4 30 1 31 12 54 -12 35
-35 -7 -9 -19 -14 -26 -11 -11 4 -11 1 -1 -15 12 -19 12 -19 34 7 18 23 19 31
10 53 -11 25 -32 52 -39 50 -2 -1 -10 -3 -20 -6z"/>
<path d="M2540 3435 c0 -16 16 -20 24 -6 3 5 -1 11 -9 15 -9 3 -15 0 -15 -9z"/>
<path d="M2369 2920 c-48 -43 -133 -270 -123 -328 10 -51 22 -62 106 -96 32
-13 37 -13 42 1 9 21 8 22 -16 15 -13 -3 -19 -1 -15 5 4 6 -3 8 -18 5 -30 -5
-32 8 -5 33 10 9 26 36 34 59 19 51 37 213 29 261 -5 30 -3 35 13 35 18 0 19
-9 19 -137 0 -115 3 -144 19 -175 12 -26 25 -38 40 -38 11 0 28 -5 36 -10 13
-9 13 -11 0 -20 -25 -16 -43 -11 -77 22 -18 18 -33 27 -33 20 0 -7 4 -12 9
-12 5 0 16 -11 24 -24 15 -23 15 -24 -6 -19 -18 4 -19 3 -7 -7 11 -9 12 -13 3
-17 -7 -2 -13 -9 -13 -15 0 -6 8 -4 18 5 10 10 24 17 31 17 35 0 81 34 90 65
11 39 -30 278 -57 335 -16 34 -19 35 -71 35 -35 0 -61 -6 -72 -15z m156 -144
c6 -46 4 -52 -16 -65 -22 -13 -22 -13 -15 34 3 26 6 69 7 94 1 42 2 43 9 17 5
-15 12 -51 15 -80z m-206 -17 c-6 -29 -11 -72 -11 -94 0 -30 -2 -35 -8 -20 -5
11 -9 31 -9 44 -1 24 30 134 35 128 2 -2 -1 -28 -7 -58z m55 39 c3 -13 5 -34
5 -48 0 -23 -1 -23 -9 -5 -7 17 -9 14 -9 -13 -1 -19 -5 -31 -11 -27 -11 7 -14
98 -3 108 12 12 21 7 27 -15z m106 -19 c0 -18 -6 -50 -12 -73 -13 -41 -13 -41
-18 -12 -9 50 0 116 16 116 9 0 14 -11 14 -31z m62 -172 c-21 -24 -24 -17 -10
21 10 27 14 29 19 15 4 -10 0 -25 -9 -36z m-252 -1 c0 -6 -7 -2 -15 8 -8 11
-15 25 -15 30 0 6 7 2 15 -8 8 -11 15 -25 15 -30z"/>
<path d="M1650 2890 c0 -19 11 -26 23 -14 8 8 -3 34 -14 34 -5 0 -9 -9 -9 -20z"/>
<path d="M2565 2806 c2 -22 9 -44 15 -50 7 -7 8 -2 1 19 -5 17 -12 39 -15 50
-3 11 -3 2 -1 -19z"/>
<path d="M2249 2764 c-5 -15 -12 -31 -16 -37 -3 -6 -1 -7 4 -4 11 7 36 67 27
67 -2 0 -9 -12 -15 -26z"/>
<path d="M3195 2750 c-4 -12 -5 -24 -2 -27 3 -2 8 5 12 17 4 12 5 24 2 27 -3
2 -8 -5 -12 -17z"/>
<path d="M2764 2684 c-12 -18 -14 -28 -6 -36 14 -14 33 -1 25 18 -4 10 2 17
16 21 11 3 18 9 15 14 -10 17 -34 9 -50 -17z"/>
<path d="M2030 2690 c-12 -8 -11 -10 8 -10 13 0 22 -6 22 -15 0 -8 9 -15 20
-15 22 0 26 20 8 38 -14 14 -38 15 -58 2z"/>
<path d="M2201 2662 c-6 -12 -11 -32 -11 -47 0 -29 26 -85 39 -85 5 0 0 18
-12 39 -19 35 -20 44 -10 72 14 37 10 51 -6 21z"/>
<path d="M1924 2619 c-4 -7 3 -19 14 -28 12 -9 27 -31 33 -48 13 -40 31 -44
20 -5 -10 34 -44 92 -53 92 -4 0 -10 -5 -14 -11z"/>
<path d="M2596 2564 c-4 -19 -14 -38 -22 -41 -7 -3 -14 -10 -14 -16 0 -23 48
36 52 64 6 42 -8 36 -16 -7z"/>
<path d="M2906 2569 c-22 -38 -38 -99 -25 -99 5 0 9 8 9 18 0 9 11 37 25 61
27 47 29 51 17 51 -4 0 -16 -14 -26 -31z"/>
<path d="M2270 2451 c0 -11 -3 -28 -6 -38 -3 -10 1 -8 9 6 11 18 16 20 20 10
3 -8 6 -2 6 14 1 18 -4 27 -14 27 -8 0 -15 -9 -15 -19z"/>
<path d="M2090 2431 c-14 -28 -13 -74 3 -69 6 3 13 23 13 46 2 47 -1 51 -16
23z"/>
<path d="M2690 2434 c0 -7 7 -27 15 -45 10 -24 14 -28 14 -14 0 21 -28 78 -29
59z"/>
<path d="M2792 2365 c0 -36 4 -65 9 -65 12 0 12 117 0 124 -5 3 -9 -23 -9 -59z"/>
<path d="M2443 2404 c-3 -8 -12 -13 -19 -10 -10 4 -11 -1 -4 -20 6 -14 10 -41
10 -60 0 -19 5 -34 11 -34 8 0 10 16 6 47 -3 26 -1 57 4 70 5 13 6 23 3 23 -2
0 -7 -7 -11 -16z"/>
<path d="M2542 2320 c0 -8 4 -26 8 -40 6 -20 8 -21 8 -5 0 11 -3 29 -8 40 -5
12 -8 14 -8 5z"/>
<path d="M1685 1993 c-11 -3 -29 -16 -40 -29 -27 -31 -37 -30 -29 3 7 26 7 26
-37 19 -24 -4 -54 -14 -66 -22 -12 -7 -29 -14 -38 -14 -9 0 -19 -8 -22 -17 -4
-10 -11 -22 -17 -26 -7 -6 -4 -7 7 -3 24 7 21 -8 -5 -37 -13 -13 -36 -40 -51
-60 -15 -21 -37 -37 -47 -37 -18 0 -20 -7 -20 -94 0 -71 4 -97 15 -106 23 -19
18 -31 -11 -24 l-27 7 6 -59 c3 -32 9 -76 13 -96 6 -34 4 -38 -19 -43 -23 -6
-25 -11 -21 -38 3 -18 9 -41 14 -52 4 -11 11 -28 14 -37 3 -12 11 -15 22 -11
12 4 15 2 12 -8 -3 -8 -14 -13 -26 -11 -12 2 -22 -1 -22 -6 0 -23 83 -248 100
-273 11 -15 17 -34 14 -43 -8 -20 13 -46 36 -46 10 0 43 -11 74 -25 31 -14 59
-25 61 -25 3 0 5 11 5 25 0 19 5 25 21 25 18 0 19 -3 9 -15 -20 -24 -1 -36 52
-34 37 2 59 9 80 27 27 23 30 24 42 7 14 -19 89 -43 117 -37 11 2 15 10 12 23
-4 14 0 19 16 19 23 0 28 -19 10 -37 -16 -16 6 -26 30 -13 11 5 28 10 39 10
38 0 46 26 44 131 -2 75 0 99 10 99 10 0 10 2 1 8 -10 6 -12 108 -2 158 1 5 1
20 0 33 -1 21 -5 23 -32 17 -22 -4 -29 -2 -27 7 3 6 16 13 30 15 28 3 29 8 11
162 l-8 65 -40 6 c-68 11 -183 -4 -200 -26 -14 -19 -16 -19 -26 -2 -7 12 -23
17 -54 17 -42 0 -45 -2 -53 -32 -5 -18 -8 -58 -6 -88 1 -30 3 -79 3 -107 1
-46 4 -53 21 -53 17 0 20 -7 20 -45 0 -47 -4 -50 -47 -39 -14 4 -23 16 -26 33
-2 14 -3 -1 -1 -34 2 -59 3 -60 34 -63 28 -3 31 -1 25 17 -4 14 -1 23 9 27 26
10 22 100 -4 114 -19 10 -20 20 -19 119 0 59 4 112 7 118 13 21 62 20 62 -1 0
-9 11 -13 35 -13 27 1 35 6 35 19 0 10 3 18 8 18 4 1 30 4 57 7 73 9 127 5
141 -9 7 -7 15 -52 19 -100 7 -85 7 -86 -16 -90 -20 -2 -24 -10 -27 -46 l-3
-43 25 17 c21 13 26 13 26 3 4 -121 -3 -376 -11 -390 -6 -11 -21 -19 -36 -19
-20 0 -24 4 -20 20 4 17 0 20 -29 20 -21 0 -40 -7 -51 -19 -20 -24 -69 -19
-95 10 -21 24 -49 24 -70 0 -8 -10 -32 -21 -53 -25 -44 -9 -65 5 -45 29 17 20
12 24 -27 18 -21 -3 -33 -11 -33 -20 0 -17 -30 -15 -90 7 -19 7 -41 14 -47 16
-7 2 -13 15 -13 30 0 14 -9 37 -19 50 -11 14 -31 62 -45 107 -39 128 -41 137
-22 137 11 0 16 9 16 26 0 32 -17 64 -34 64 -8 0 -16 14 -19 33 -3 24 1 35 15
45 17 12 18 22 12 99 l-7 86 27 -7 c26 -6 27 -5 24 21 -2 15 -11 36 -20 45
-14 14 -18 35 -18 94 0 68 2 75 18 70 13 -5 22 1 30 19 7 14 32 47 57 74 25
26 45 58 45 69 0 30 56 58 109 53 10 -1 11 -4 2 -15 -7 -8 -8 -17 -3 -20 16
-10 43 1 68 27 21 23 33 27 78 27 86 0 177 -33 219 -79 35 -39 55 -96 44 -125
-3 -8 2 -16 14 -19 16 -4 19 -14 19 -74 0 -38 -4 -73 -10 -79 -5 -5 -11 -25
-13 -44 -4 -34 -6 -35 -52 -38 -26 -2 -53 2 -58 7 -14 14 -54 14 -59 0 -6 -18
-80 -30 -111 -17 l-29 11 3 101 3 101 -31 3 -31 3 -1 -92 c-1 -92 -6 -114 -21
-104 -4 3 -11 -2 -14 -11 -10 -25 -7 -84 4 -84 6 0 10 -52 10 -137 0 -75 2
-134 4 -132 3 2 8 64 11 136 6 116 5 132 -10 140 -23 13 -17 69 8 67 14 -2 17
7 18 55 1 54 5 128 8 144 0 4 8 7 17 7 12 0 15 -11 14 -52 -4 -142 -2 -155 29
-168 34 -14 119 -9 130 8 5 8 26 8 80 0 81 -12 91 -7 91 44 0 15 5 30 11 34
14 8 6 213 -8 223 -6 3 -13 18 -16 33 -12 45 -90 115 -150 131 -62 18 -144 27
-172 20z m-20 -923 c3 -5 1 -10 -4 -10 -6 0 -11 5 -11 10 0 6 2 10 4 10 3 0 8
-4 11 -10z"/>
<path d="M2998 1967 c-71 -34 -141 -99 -168 -157 -15 -32 -29 -49 -37 -46 -21
9 -33 -29 -33 -108 0 -52 4 -79 15 -89 7 -8 32 -52 55 -98 33 -69 49 -90 88
-116 57 -39 62 -40 62 -13 0 23 -2 23 38 9 17 -6 34 -19 37 -29 4 -12 19 -19
47 -23 24 -3 48 -14 55 -24 19 -25 14 -214 -6 -221 -11 -4 -13 16 -10 104 l4
108 -35 9 c-19 5 -39 12 -45 17 -30 23 -190 15 -222 -12 -7 -6 -13 -30 -13
-54 0 -24 -4 -44 -8 -44 -11 0 -2 -132 9 -145 15 -15 10 -45 -7 -45 -39 0 22
-105 88 -151 25 -18 34 -20 49 -11 27 17 50 5 43 -23 -5 -21 -2 -23 68 -30
140 -15 148 -15 148 5 0 31 19 33 30 4 9 -23 14 -26 41 -20 49 9 83 29 94 54
5 12 15 22 21 22 17 0 51 42 58 74 4 16 15 30 26 33 24 6 29 32 32 183 3 105
1 115 -14 112 -11 -2 -18 3 -18 13 0 9 6 15 13 12 27 -10 43 12 45 60 2 26 5
56 8 66 3 10 0 24 -6 32 -8 10 -10 28 -5 52 4 20 9 84 11 142 3 57 7 109 11
114 3 6 1 7 -5 3 -7 -4 -12 -1 -12 8 0 8 -9 20 -20 26 -11 6 -20 20 -20 31 0
11 -8 34 -17 52 -9 18 -16 35 -15 38 1 4 -13 13 -30 20 -24 10 -34 10 -50 0
-24 -15 -48 1 -41 28 3 11 -2 21 -11 24 -19 7 -173 26 -201 25 -30 -2 -48 -25
-41 -53 5 -21 3 -25 -15 -25 -15 0 -19 4 -15 16 20 51 19 64 -5 64 -13 0 -45
-10 -71 -23z m59 -34 c-2 -38 -2 -38 41 -41 l44 -3 -7 30 c-6 27 -3 32 20 41
35 13 108 13 139 -2 19 -8 24 -17 20 -32 -4 -17 4 -25 43 -43 42 -19 49 -20
56 -7 15 26 67 -31 67 -73 0 -26 5 -35 25 -43 28 -11 40 -47 30 -87 -9 -39
-23 -53 -52 -53 -15 0 -23 -5 -20 -12 2 -7 16 -12 30 -11 l26 2 -1 -132 c0
-158 -2 -167 -34 -167 -22 0 -24 -3 -24 -55 0 -48 2 -55 20 -55 18 0 20 -7 20
-66 0 -87 -17 -151 -41 -157 -13 -4 -19 -14 -19 -34 0 -37 -23 -69 -55 -77
-14 -4 -25 -12 -25 -20 0 -19 -22 -35 -57 -42 -27 -5 -31 -3 -37 20 -5 22 -12
26 -36 24 -24 -2 -30 -7 -30 -25 0 -20 -5 -23 -39 -23 -21 0 -59 3 -85 6 -38
6 -45 10 -41 24 8 25 -49 48 -77 31 -16 -10 -24 -9 -43 3 -54 36 -93 114 -65
131 12 8 13 75 1 75 -10 0 -22 91 -13 105 4 5 7 27 8 49 0 46 17 61 80 71 51
7 98 0 132 -22 13 -8 30 -12 37 -9 28 10 35 -20 29 -120 -5 -82 -3 -102 10
-119 16 -20 16 -20 36 5 19 23 20 37 18 148 -3 109 -5 125 -22 138 -11 8 -31
14 -44 14 -14 0 -39 11 -57 24 -40 31 -104 44 -116 25 -20 -34 -129 131 -129
196 0 8 -9 15 -20 15 -21 0 -21 2 -24 95 -2 55 3 67 25 60 15 -5 24 5 45 52
28 63 98 138 155 166 51 25 59 22 56 -20z"/>
<path d="M3120 1585 c0 -86 3 -105 15 -105 23 0 32 28 40 123 l7 87 -31 0 -31
0 0 -105z m35 -32 c-3 -24 -10 -43 -15 -43 -11 0 -6 106 6 140 8 23 9 22 12
-15 2 -22 1 -59 -3 -82z"/>
<path d="M3665 848 c-15 -18 -39 -45 -53 -60 l-24 -27 35 -31 c20 -17 39 -40
42 -51 12 -35 30 -19 59 51 15 39 34 70 41 70 17 0 87 -81 82 -95 -2 -5 -9
-31 -17 -57 l-14 -48 -46 0 c-25 0 -52 -5 -60 -10 -11 -7 -1 -10 35 -10 28 0
60 -3 72 -6 19 -5 23 -1 28 33 4 21 13 48 21 60 8 12 14 32 14 43 0 23 -106
129 -130 130 -15 0 -34 -33 -45 -82 -4 -15 -14 -33 -22 -40 -13 -10 -19 -7
-40 17 l-25 29 52 46 c32 28 50 51 46 58 -11 18 -20 15 -51 -20z"/>
<path d="M1220 843 c0 -3 8 -15 17 -25 15 -17 15 -21 -7 -61 -33 -61 -41 -68
-61 -62 -11 4 -19 2 -19 -4 0 -6 5 -11 10 -11 19 0 10 -37 -15 -58 -25 -22
-33 -42 -17 -42 10 0 33 23 60 58 17 23 18 23 41 5 19 -15 23 -30 26 -83 2
-36 8 -66 14 -68 5 -2 28 8 50 22 22 14 45 26 51 26 5 0 10 5 10 10 0 15 -27
12 -61 -5 -34 -18 -34 -17 -43 58 l-6 47 43 0 c63 0 70 9 62 69 -5 40 -13 55
-35 71 -15 11 -32 20 -37 20 -6 0 -18 9 -28 20 -17 19 -55 28 -55 13z m109
-82 c22 -20 31 -38 31 -60 l0 -31 -57 0 c-81 0 -93 10 -69 52 23 40 46 68 56
68 5 0 22 -13 39 -29z"/>
<path d="M3275 561 c-4 -7 -25 -23 -47 -37 -28 -18 -37 -29 -30 -36 7 -7 19
-4 38 11 27 21 28 21 45 4 28 -28 100 -163 94 -173 -3 -6 -12 -10 -18 -10 -16
0 -81 -40 -75 -46 3 -2 25 5 49 16 24 11 65 20 91 20 46 0 47 1 53 34 4 18 7
64 8 101 l2 68 -70 24 c-88 31 -131 38 -140 24z m117 -40 c58 -24 74 -34 77
-53 5 -34 -19 -128 -33 -128 -6 0 -20 15 -31 33 -10 17 -21 34 -24 37 -13 11
-81 120 -81 130 0 15 12 13 92 -19z"/>
<path d="M1612 498 c-45 -52 -44 -67 1 -68 30 0 10 -17 -29 -25 -34 -6 -36 -8
-31 -38 3 -18 9 -51 12 -74 8 -48 16 -52 51 -24 13 10 51 27 84 37 60 18 79
34 40 34 -11 0 -48 -11 -81 -25 -42 -17 -61 -20 -64 -12 -20 68 -16 77 43 82
104 9 127 44 42 66 -27 7 -50 15 -50 18 1 3 10 17 21 30 19 23 22 24 47 9 40
-23 92 -31 92 -14 0 12 -103 57 -126 55 -5 0 -29 -23 -52 -51z"/>
<path d="M2018 397 c-12 -13 -48 -42 -78 -64 -83 -60 -88 -69 -51 -87 32 -17
101 -100 101 -122 0 -20 23 -17 41 4 8 9 28 27 43 40 30 23 28 46 -2 24 -50
-36 -61 -36 -84 -6 -13 16 -33 39 -46 52 -12 13 -20 28 -17 33 6 9 112 79 120
79 3 0 5 -7 5 -15 0 -23 23 -66 33 -62 9 3 20 28 41 95 11 35 -13 27 -29 -10
-14 -35 -22 -28 -27 26 -4 38 -21 43 -50 13z"/>
<path d="M2835 400 c-11 -4 -28 -18 -37 -29 -17 -20 -17 -22 1 -40 28 -28 43
-88 28 -112 -9 -15 -9 -21 0 -27 7 -4 16 -27 22 -51 16 -75 23 -69 25 24 1 34
5 49 14 47 6 -1 12 2 12 7 0 5 13 14 29 21 24 10 35 9 64 -5 19 -9 45 -27 58
-41 12 -13 26 -24 29 -24 4 0 7 33 6 74 -1 77 -11 90 -22 31 -7 -39 -21 -44
-55 -16 -21 17 -22 22 -11 45 21 47 15 61 -38 84 -52 23 -91 27 -125 12z m103
-36 c18 -8 32 -20 32 -26 0 -18 -79 -90 -95 -86 -9 2 -16 6 -16 10 0 4 -6 25
-13 46 -13 35 -12 41 2 55 22 20 52 21 90 1z"/>
<path d="M2417 359 c-22 -13 -60 -94 -94 -201 -3 -11 7 -24 35 -42 23 -14 59
-44 81 -68 22 -23 42 -40 44 -37 2 2 16 25 30 50 15 25 38 56 52 69 14 13 25
29 25 35 0 7 -20 56 -45 109 -43 93 -45 96 -77 96 -18 0 -41 -5 -51 -11z m71
-25 c12 -8 22 -22 22 -30 0 -8 11 -37 25 -64 14 -27 25 -54 25 -61 0 -17 -92
-121 -99 -112 -5 7 -78 65 -99 79 -7 5 52 170 66 187 19 21 31 21 60 1z"/>
</g>
</svg>
